<?xml version="1.0" encoding="UTF-8"?>
<svg width="16px" height="15px" viewBox="0 0 16 15" version="1.1" xmlns="http://www.w3.org/2000/svg" xmlns:xlink="http://www.w3.org/1999/xlink">
    <!-- Generator: Sketch 47 (45396) - http://www.bohemiancoding.com/sketch -->
    <title>点图</title>
    <desc>Created with Sketch.</desc>
    <defs></defs>
    <g id="视觉稿" stroke="none" stroke-width="1" fill="none" fill-rule="evenodd">
        <g id="图表示例-detail" transform="translate(-19.000000, -526.000000)" fill="#ABB3C9">
            <g id="nav-left" transform="translate(0.000000, 65.000000)">
                <g id="icon" transform="translate(18.000000, 460.000000)">
                    <g id="点图" transform="translate(1.000000, 0.000000)">
                        <polygon id="Rectangle" transform="translate(8.000000, 15.500000) rotate(90.000000) translate(-8.000000, -15.500000) " points="7.5 7.5 8.5 7.5 8.5 23.5 7.5 23.5"></polygon>
                        <path d="M15.8777331,10.3582764 L15.8777331,1.97482068 L15.8777331,1.97482068 C15.8777331,1.42253593 15.4300179,0.974820681 14.8777331,0.974820681 C14.6648422,0.974820681 14.4575069,1.04276251 14.2859033,1.16875772 L10.1009189,4.24146867 L10.1009189,4.24146867 C9.72457963,4.51778557 9.20712017,4.49691268 8.85425906,4.19118185 L6.27171123,1.95357479 L6.27171123,1.95357479 C5.92469387,1.65290717 5.41751457,1.62718872 5.04186248,1.89121063 L0.424981332,5.13612216 L0.424981332,5.13612216 C0.158560285,5.32337253 -5.94991187e-16,5.62862019 -5.55111512e-16,5.95426245 L0,5.95426245 L0,12.4065548 L0,11.0965569 L-6.66133815e-16,11.0965569 C-9.22908471e-16,10.8424863 0.0967088999,10.5979418 0.270483932,10.4125932 L0.270483932,10.4125932 L4.09432072,6.33408658 C4.43192559,5.97399702 4.98176734,5.91410303 5.3889832,6.19305963 L5.3889832,6.19305963 L8.93738846,8.62383694 C9.25519722,8.84154667 9.66980277,8.85734591 10.0032582,8.66445369 L14.3770098,6.13439262 C14.5292009,6.04635545 14.7019132,6 14.8777331,6 C15.4300179,6 15.8777331,6.44771525 15.8777331,7 L15.8777331,7 L15.8777331,10.3582764 Z" id="Combined-Shape"></path>
                        <path d="M2.22044605e-14,11.8302798 L1.27200993e-13,13.7165527 L15.8777331,13.7165527 L15.8777331,7.73372291 L15.8777331,7.73372291 C15.8777331,7.18143816 15.4300179,6.73372291 14.8777331,6.73372291 C14.7019132,6.73372291 14.5292009,6.78007837 14.3770098,6.86811554 L10.0032582,9.3981766 L10.0032582,9.3981766 C9.66980277,9.59106882 9.25519722,9.57526958 8.93738846,9.35755985 L5.3889832,6.92678254 L5.3889832,6.92678254 C4.98176734,6.64782594 4.43192559,6.70771994 4.09432072,7.0678095 L0.270483932,11.1463161 L0.270483932,11.1463161 C0.0967088999,11.3316647 7.17961054e-15,11.5762092 2.14273044e-14,11.8302798 Z" id="Path-9"></path>
                    </g>
                </g>
            </g>
        </g>
    </g>
</svg>