<?xml version="1.0" encoding="UTF-8"?>
<svg width="16px" height="16px" viewBox="0 0 16 16" version="1.1" xmlns="http://www.w3.org/2000/svg" xmlns:xlink="http://www.w3.org/1999/xlink">
    <!-- Generator: Sketch 47 (45396) - http://www.bohemiancoding.com/sketch -->
    <title>25k线</title>
    <desc>Created with Sketch.</desc>
    <defs></defs>
    <g id="视觉稿" stroke="none" stroke-width="1" fill="none" fill-rule="evenodd">
        <g id="图表示例-detail" transform="translate(-19.000000, -647.000000)" fill="#ABB3C9">
            <g id="nav-left" transform="translate(0.000000, 65.000000)">
                <g id="icon" transform="translate(18.000000, 460.000000)">
                    <g id="25k线" transform="translate(1.000000, 122.000000)">
                        <g id="图层_4">
                            <g>
                                <path d="M2.6855643,3.38738739 L2.67926509,0.578378378 C2.67926509,0.263063063 2.38110236,0.00720720721 2.01364829,0.00720720721 C1.64619423,0.00720720721 1.3480315,0.263063063 1.3480315,0.578378378 L1.3480315,3.38738739 C0.602624672,3.38738739 0,3.9045045 0,4.54054054 L0,11.4594595 C0,12.0954955 0.602624672,12.6126126 1.34383202,12.6126126 L1.35013123,15.4288288 C1.35013123,15.7441441 1.64829396,16 2.01574803,16 C2.3832021,16 2.68136483,15.7441441 2.68136483,15.4288288 L2.68136483,12.6126126 C3.42887139,12.6126126 4.03149606,12.0954955 4.03149606,11.4594595 L4.03149606,4.54054054 C4.02939633,3.9027027 3.42677165,3.38738739 2.6855643,3.38738739 Z" id="Shape"></path>
                                <path d="M8.66351706,6.24144144 L8.65721785,6.24144144 L8.65721785,3.43243243 C8.65721785,3.11711712 8.35905512,2.86126126 7.99160105,2.86126126 C7.62414698,2.86126126 7.32598425,3.11711712 7.32598425,3.43243243 L7.32598425,6.24144144 L7.31968504,6.24144144 C6.57847769,6.24144144 5.97585302,6.75855856 5.97585302,7.39459459 L5.97585302,8.72792793 C5.97585302,9.36396396 6.57847769,9.88108108 7.31968504,9.88108108 L7.32598425,9.88108108 L7.32598425,12.1567568 C7.32598425,12.4720721 7.62414698,12.7279279 7.99160105,12.7279279 C8.35905512,12.7279279 8.65721785,12.4720721 8.65721785,12.1567568 L8.65721785,9.88288288 L8.66351706,9.88288288 C9.40472441,9.88288288 10.0073491,9.36576577 10.0073491,8.72972973 L10.0073491,7.3963964 C10.0073491,6.75855856 9.40682415,6.24144144 8.66351706,6.24144144 Z" id="Shape"></path>
                                <path d="M14.6435696,4.86486486 L14.6372703,4.86486486 L14.6372703,2.41621622 C14.6372703,2.1009009 14.3391076,1.84504505 13.9716535,1.84504505 C13.6041995,1.84504505 13.3060367,2.1009009 13.3060367,2.41621622 L13.3060367,4.86486486 L13.2997375,4.86486486 C12.5585302,4.86486486 11.9559055,5.38198198 11.9559055,6.01801802 L11.9559055,10.7747748 C11.9559055,11.4108108 12.5585302,11.9279279 13.2997375,11.9279279 L13.3060367,11.9279279 L13.3060367,14.0234234 C13.3060367,14.3387387 13.6041995,14.5945946 13.9716535,14.5945946 C14.3391076,14.5945946 14.6372703,14.3387387 14.6372703,14.0234234 L14.6372703,11.9279279 L14.6435696,11.9279279 C15.3847769,11.9279279 15.9874016,11.4108108 15.9874016,10.7747748 L15.9874016,6.01801802 C15.9874016,5.38018018 15.3847769,4.86486486 14.6435696,4.86486486 Z" id="Shape"></path>
                            </g>
                        </g>
                    </g>
                </g>
            </g>
        </g>
    </g>
</svg>