<?xml version="1.0" encoding="UTF-8"?>
<svg width="16px" height="16px" viewBox="0 0 16 16" version="1.1" xmlns="http://www.w3.org/2000/svg" xmlns:xlink="http://www.w3.org/1999/xlink">
    <!-- Generator: Sketch 47 (45396) - http://www.bohemiancoding.com/sketch -->
    <title>Shape</title>
    <desc>Created with Sketch.</desc>
    <defs></defs>
    <g id="视觉稿" stroke="none" stroke-width="1" fill="none" fill-rule="evenodd">
        <g id="图表示例-detail" transform="translate(-18.000000, -887.000000)" fill-rule="nonzero" fill="#ABB3C9">
            <g id="nav-left" transform="translate(0.000000, 65.000000)">
                <g id="icon" transform="translate(18.000000, 460.000000)">
                    <path d="M7.98751625,362 C3.57659298,362 0,365.576593 0,369.987516 C0,374.39844 3.57659298,377.975033 7.98751625,377.975033 C12.3984395,377.975033 15.9750325,374.39844 15.9750325,369.987516 C15.9729519,365.576593 12.3984395,362 7.98751625,362 L7.98751625,362 Z M7.96879064,376.56645 C4.33602081,376.56645 1.38985696,373.620286 1.38985696,369.987516 C1.38985696,368.764109 1.72483745,367.621847 2.3053316,366.639792 C2.36775033,366.920676 2.563329,367.773732 2.61326398,367.975553 C2.67360208,368.218986 2.97945384,368.830689 3.19791938,368.780754 C3.41638492,368.7329 3.3206762,368.183615 3.28322497,367.950585 C3.24577373,367.719636 2.97737321,367.804941 2.92951886,367.755007 C2.87958388,367.707152 2.89206762,367.230689 3.08764629,367.120416 C3.28322497,367.010143 3.53914174,366.729259 3.61196359,366.937321 C3.68478544,367.145384 4.06345904,367.303511 4.13628088,367.120416 C4.20910273,366.937321 4.67308192,365.522497 5.40546164,365.326918 C6.13784135,365.131339 6.83276983,365.204161 6.83276983,364.825488 C6.83276983,364.446814 6.67464239,364.178414 6.40624187,364.238752 C6.13784135,364.29909 5.84447334,364.579974 5.6863459,364.592458 C5.52821847,364.604941 5.40546164,364.373992 5.8319896,364.093108 C6.25851756,363.812224 7.06371912,363.581274 7.25929779,363.701951 C7.45487646,363.824707 7.28426528,364.446814 7.56514954,364.507152 C7.84603381,364.56749 8.49310793,364.005722 8.50559168,363.579194 C8.5076723,363.518856 8.48062419,363.46684 8.43276983,363.423147 C10.6403121,363.579194 12.5440832,364.819246 13.6176853,366.618986 C13.4741222,366.498309 13.3180754,366.390117 13.1391417,366.302731 C13.1391417,366.302731 11.8907672,365.73472 11.0252276,366.144603 C10.4655397,366.406762 10.1014304,366.677243 10.0202861,367.519896 C9.95994798,368.127438 9.95370611,369.781534 11.8595579,369.679584 C13.226528,369.606762 12.6855657,371.770611 12.6855657,371.770611 C12.6855657,371.770611 11.8241873,373.657737 12.6044213,373.657737 C13.0288687,373.657737 13.3992198,373.455917 13.6925878,373.224967 C12.5628088,375.220286 10.4218466,376.56645 7.96879064,376.56645 L7.96879064,376.56645 Z M7.47152146,371.077763 C6.99921977,370.274642 6.25019506,370.46606 5.8923277,370.120676 C5.66553966,369.902211 3.92821847,368.385436 3.18751625,369.151105 C2.97113134,369.375813 3.00858257,371.550065 3.35396619,371.843433 C3.6993498,372.136801 4.4130039,373.093888 4.37347204,373.578674 C4.33602081,374.063459 4.64187256,374.939402 4.92275683,375.211964 C5.29726918,375.576073 5.54902471,376.019246 5.79037711,375.863199 C6.12119636,375.646814 5.38257477,374.868661 5.64889467,374.281925 C5.91729519,373.693108 7.94174252,371.882965 7.47152146,371.077763 L7.47152146,371.077763 Z" id="Shape"></path>
                </g>
            </g>
        </g>
    </g>
</svg>