<?xml version="1.0" encoding="UTF-8"?>
<svg width="16px" height="16px" viewBox="0 0 16 16" version="1.1" xmlns="http://www.w3.org/2000/svg" xmlns:xlink="http://www.w3.org/1999/xlink">
    <!-- Generator: Sketch 47 (45396) - http://www.bohemiancoding.com/sketch -->
    <title>11热力图</title>
    <desc>Created with Sketch.</desc>
    <defs></defs>
    <g id="视觉稿" stroke="none" stroke-width="1" fill="none" fill-rule="evenodd">
        <g id="图表示例-detail" transform="translate(-18.000000, -688.000000)" fill="#ABB3C9">
            <g id="nav-left" transform="translate(0.000000, 65.000000)">
                <g id="icon" transform="translate(18.000000, 460.000000)">
                    <g id="11热力图" transform="translate(0.000000, 163.000000)">
                        <g id="图层_3">
                            <g>
                                <path d="M15.042471,9.05019305 C12.4458172,6.3979408 12.7093951,5.38687259 13.0924067,4.32844273 C13.4754183,3.27001287 12.5467181,-1.38996139 9.10579151,0.422136422 C5.66486486,2.23423423 6.69034749,4.65997426 4.23577864,4.55083655 C1.78120978,4.44375804 -1.23552124,5.76164736 0.564221364,10.619305 C1.26846847,12.5178893 2.6048906,14.358816 4.67438867,14.624453 C6.74388674,14.8900901 10.1436293,14.2126126 12.2131274,15.2422136 C14.2826255,16.2738739 17.6391248,11.7024453 15.042471,9.05019305 Z M11.6550837,14.023166 C9.90888031,13.2097812 7.05070785,13.6875161 5.2962677,13.4939511 C3.54182754,13.3003861 2.18893179,12.0751609 1.61235521,10.5431145 C0.135907336,6.62239382 2.98996139,5.51454311 5.07387387,5.57631918 C7.15572716,5.63809524 6.27232947,3.21235521 9.21081081,1.70913771 C12.1492921,0.205920206 12.3366795,4.0978121 12.0010296,4.96061776 C11.6118404,5.95727156 11.6468468,6.9003861 13.9202059,9.11814672 C16.0967825,11.2432432 13.401287,14.8365508 11.6550837,14.023166 Z" id="Shape"></path>
                                <path d="M2.92612613,8.15032175 C1.98095238,8.96370656 2.79227799,10.8890605 4.00926641,11.2844273 C5.22831403,11.6797941 6.43294723,11.2453024 7.37812098,10.4195624 C8.32329472,9.59382239 8.1976834,6.75418275 6.62651223,7.49137709 C5.05534106,8.22857143 4.85353925,6.49060489 2.92612613,8.15032175 Z" id="Shape"></path>
                                <path d="M9.78120978,2.68725869 C8.65276705,2.97760618 7.59021879,4.87207207 8.04530245,5.71428571 C8.5003861,6.55444015 9.48262548,8.04942085 9.16138996,9.13256113 C8.84015444,10.2136422 9.07902188,11.5253539 10.1559846,11.9145431 C11.2329472,12.3037323 13.5330759,12.1740026 13.5619048,11.0393822 C13.5907336,9.9047619 10.8458172,8.6980695 10.7675676,6.84478764 C10.6913771,4.99150579 11.6138996,2.21570142 9.78120978,2.68725869 Z" id="Shape"></path>
                            </g>
                        </g>
                    </g>
                </g>
            </g>
        </g>
    </g>
</svg>