<?xml version="1.0" encoding="UTF-8"?>
<svg width="16px" height="16px" viewBox="0 0 16 16" version="1.1" xmlns="http://www.w3.org/2000/svg" xmlns:xlink="http://www.w3.org/1999/xlink">
    <!-- Generator: Sketch 47 (45396) - http://www.bohemiancoding.com/sketch -->
    <title>svg+xml</title>
    <desc>Created with Sketch.</desc>
    <defs></defs>
    <g id="视觉稿" stroke="none" stroke-width="1" fill="none" fill-rule="evenodd">
        <g id="图表示例-detail" transform="translate(-18.000000, -926.000000)" fill-rule="nonzero" fill="#ABB3C9">
            <g id="nav-left" transform="translate(0.000000, 65.000000)">
                <g id="icon" transform="translate(18.000000, 460.000000)">
                    <g id="svg+xml" transform="translate(0.000000, 401.000000)">
                        <path d="M15.6461472,5.816542 C15.1577353,5.23932791 14.3585158,5.15052574 13.7813017,5.63893766 L7.9647597,2.08685095 C7.92035862,1.82044444 7.83155645,1.59843902 7.65395211,1.37643361 C7.16554018,0.799219512 6.36632067,0.710417342 5.78910658,1.19882927 C5.52270007,1.42083468 5.38949682,1.73164227 5.34509574,2.04244986 L2.19261877,3.90729539 C1.83741009,3.5964878 1.39339926,3.50768564 0.949388425,3.64088888 C0.238971083,3.8628943 -0.160638673,4.57331164 0.0613667434,5.283729 C0.19456999,5.816542 0.682981916,6.17175068 1.17139384,6.21615176 L1.92621226,9.54623307 C1.5710036,9.76823849 1.30459709,10.2122493 1.30459709,10.6562602 C1.30459709,11.4110786 1.88181118,11.9882927 2.6366296,11.9882927 C2.94743719,11.9882927 3.25824478,11.8550894 3.48025021,11.6774851 L6.63272716,13.5423306 C6.63272716,13.6311328 6.58832609,13.719935 6.58832609,13.8087371 C6.58832609,14.5635556 7.16554018,15.1407696 7.9203586,15.1407697 C8.67517702,15.1407697 9.25239112,14.5635556 9.25239113,13.8087371 C9.25239113,13.5867317 9.20799006,13.3647263 9.11918787,13.187122 L14.0477082,7.90339295 C14.491719,8.08099729 15.0245321,8.0365962 15.4241418,7.72578861 C16.045757,7.23737669 16.1345591,6.3937561 15.6461472,5.816542 Z M13.3372909,7.41498103 L8.4975727,12.5655068 C8.36436945,12.5211057 8.27556728,12.4767046 8.14236404,12.4767046 L7.43194668,9.14662331 C7.96475968,8.8802168 8.36436944,8.3474038 8.40877053,7.68138754 L13.3372909,7.41498103 L13.3372909,7.41498103 Z M7.12113909,12.7875122 L3.96866213,10.9226667 C3.96866213,10.8338645 4.01306321,10.7450623 4.01306321,10.6562602 C4.01306321,10.5230569 3.96866213,10.3898537 3.92426104,10.2566504 L5.56710116,8.92461788 C5.83350767,9.1466233 6.18871633,9.27982656 6.58832609,9.27982656 L7.29874343,12.6099079 L7.12113909,12.7875122 L7.12113909,12.7875122 Z M2.81423394,9.36862873 L2.05941552,6.03854742 L4.94548599,7.28177778 C4.94548599,7.37057995 4.90108491,7.45938212 4.90108489,7.54818429 C4.90108489,7.8145908 4.94548597,8.03659621 5.03428814,8.25860163 L3.39144804,9.54623307 C3.2138437,9.4574309 3.03623936,9.36862873 2.81423394,9.36862873 L2.81423394,9.36862873 Z M2.6366296,4.66211383 L5.56710116,2.97487263 C5.61150224,3.01927371 5.61150224,3.0636748 5.65590333,3.10807588 C5.83350767,3.28568022 6.01111201,3.41888347 6.23311741,3.50768564 L6.23311741,5.86094309 C5.83350765,5.94974526 5.52270007,6.17175068 5.30069465,6.48255827 L2.6366296,5.32813008 C2.6366296,5.10612466 2.68103068,4.88411924 2.6366296,4.66211383 L2.6366296,4.66211383 Z M7.74275428,2.97487263 L13.3372909,6.3937561 L13.3372909,6.52695934 L8.27556728,6.83776693 C8.05356187,6.349355 7.60955102,5.99414634 7.12113909,5.86094309 L7.12113909,3.50768564 C7.25434234,3.46328456 7.3875456,3.37448239 7.52074885,3.28568022 C7.60955102,3.19687805 7.69835319,3.10807588 7.74275428,2.97487263 L7.74275428,2.97487263 Z" id="Shape"></path>
                    </g>
                </g>
            </g>
        </g>
    </g>
</svg>