<?xml version="1.0" encoding="UTF-8"?>
<svg width="20px" height="21px" viewBox="0 0 20 21" version="1.1" xmlns="http://www.w3.org/2000/svg" xmlns:xlink="http://www.w3.org/1999/xlink">
    <!-- Generator: Sketch 47 (45396) - http://www.bohemiancoding.com/sketch -->
    <title>搜索</title>
    <desc>Created with Sketch.</desc>
    <defs></defs>
    <g id="视觉稿" stroke="none" stroke-width="1" fill="none" fill-rule="evenodd">
        <g id="首页" transform="translate(-1221.000000, -22.000000)" fill-rule="nonzero" fill="#959AA3">
            <g id="Group-5" transform="translate(-181.000000, 0.000000)">
                <g id="搜索" transform="translate(1402.000000, 22.000000)">
                    <path d="M19.4803241,20.4807004 C18.7872847,21.1730999 17.6642286,21.1730999 16.9715208,20.4807004 L13.3871648,16.8986384 C13.3740109,16.885733 13.3654719,16.8703181 13.3529536,16.8568612 C12.0622406,17.5725345 10.5781983,17.9826134 8.99732568,17.9826134 C4.02802388,17.9826135 0,13.9571886 0,8.99140327 C0,4.02572819 4.02802388,0 8.99732568,0 C13.966738,0 17.9946514,4.02572819 17.9946514,8.99140327 C17.9946514,11.0936403 17.2674008,13.0228672 16.0582088,14.5536245 L19.4803241,17.9732377 C20.1732253,18.6653338 20.1732253,19.7879701 19.4803241,20.4807004 L19.4803241,20.4807004 Z M8.99765728,2.683782 C5.51173449,2.683782 2.68602165,5.50759365 2.68602165,8.99140327 C2.68602165,12.4753232 5.51173449,15.2988315 8.99765728,15.2988315 C12.4835524,15.2988315 15.3095969,12.4753231 15.3095969,8.99140327 C15.3095969,5.50759369 12.4835524,2.683782 8.99765728,2.683782 L8.99765728,2.683782 Z" id="Shape"></path>
                </g>
            </g>
        </g>
    </g>
</svg>