<?xml version="1.0" encoding="UTF-8"?>
<svg width="101px" height="100px" viewBox="0 0 101 100" version="1.1" xmlns="http://www.w3.org/2000/svg" xmlns:xlink="http://www.w3.org/1999/xlink">
    <!-- Generator: Sketch 46.2 (44496) - http://www.bohemiancoding.com/sketch -->
    <title>简单</title>
    <desc>Created with Sketch.</desc>
    <defs>
        <linearGradient x1="98.8166299%" y1="3.51616424%" x2="-3.50909635%" y2="95.2086812%" id="linearGradient-1">
            <stop stop-color="#935EFF" offset="0%"></stop>
            <stop stop-color="#6C57FF" offset="63.671875%"></stop>
            <stop stop-color="#625EFF" offset="100%"></stop>
        </linearGradient>
    </defs>
    <g id="视觉稿" stroke="none" stroke-width="1" fill="none" fill-rule="evenodd">
        <g id="Artboard-2" transform="translate(-444.000000, -1678.000000)">
            <g id="简单" transform="translate(444.000000, 1678.000000)">
                <path d="M50,100 C77.6142375,100 100,77.6142375 100,50 C100,22.3857625 77.6142375,0 50,0 C22.3857625,0 0,22.3857625 0,50 C0,77.6142375 22.3857625,100 50,100 Z" id="Oval-8" fill="#FCFCFF"></path>
                <g id="Group-12" transform="translate(16.243243, 23.378378)">
                    <rect id="Rectangle-5" fill="url(#linearGradient-1)" x="0" y="0" width="67.0940236" height="53.8408831" rx="2"></rect>
                    <path d="M6.32962487,12.8192579 L59.4984738,12.8192579" id="Line" stroke="#986EED" stroke-linecap="square"></path>
                    <path d="M6.32962487,28.2023674 L59.4984738,28.2023674" id="Line" stroke="#986EED" stroke-linecap="square"></path>
                    <path d="M6.32962487,43.5854768 L59.4984738,43.5854768" id="Line" stroke="#B28CFF" stroke-linecap="square"></path>
                    <polygon id="Path-3" fill="#F083FF" points="6.32962487 38.5115981 27.8503494 25.1849113 38.743967 35.894333 60.7643987 13.6475792 60.7643987 44.4137981 6.32962487 44.4137981"></polygon>
                    <polyline id="Path-7" points="6.32962487 37.1758479 27.8503494 24.35659 39.2436742 34.6119963 60.7643987 11.5373321"></polyline>
                </g>
                <g id="Group-13" transform="translate(1.000000, 9.000000)">
                    <rect id="Rectangle-13" fill="#DDDAFF" x="75.7633211" y="69.7908834" width="24" height="5" rx="2.5"></rect>
                    <rect id="Rectangle-13" fill="#CDC8FF" x="0.0634480089" y="0" width="30.5408242" height="6.13944336" rx="3.06972168"></rect>
                    <ellipse id="Oval-7" fill="#CDC8FF" cx="39.4226001" cy="3.06972168" rx="3.05408242" ry="3.06972168"></ellipse>
                </g>
            </g>
        </g>
    </g>
</svg>