<?xml version="1.0" encoding="UTF-8"?>
<svg width="79px" height="56px" viewBox="0 0 79 56" version="1.1" xmlns="http://www.w3.org/2000/svg" xmlns:xlink="http://www.w3.org/1999/xlink">
    <!-- Generator: Sketch 46.2 (44496) - http://www.bohemiancoding.com/sketch -->
    <title>Page 1</title>
    <desc>Created with Sketch.</desc>
    <defs>
        <polygon id="path-1" points="8 42.8 48 42.8 48 14 8 14"></polygon>
    </defs>
    <g id="视觉稿" stroke="none" stroke-width="1" fill="none" fill-rule="evenodd">
        <g id="Artboard-2" transform="translate(-432.000000, -717.000000)">
            <g id="Page-1" transform="translate(432.000000, 717.000000)">
                <polygon id="Triangle-4" fill="#FFE9E9" points="58 2 79 36 37 36"></polygon>
                <circle id="Oval-2" fill="#FF6B67" cx="28" cy="28" r="28"></circle>
                <mask id="mask-2" fill="white">
                    <use xlink:href="#path-1"></use>
                </mask>
                <g id="Clip-2"></g>
                <path d="M15.0588235,35.0227338 L40.9411765,35.0227338 L40.9411765,20.486908 L15.0588235,20.486908 L15.0588235,35.0227338 Z M46.9915966,14.0002714 C46.4342857,14.0002714 45.9831933,14.4496811 45.9831933,15.0049131 L45.9831933,39.3701533 L42.9122689,36.3106844 C42.9391597,36.2202667 42.9579832,36.1265001 42.9579832,36.0267057 L42.9579832,19.4822663 C42.9579832,18.9270343 42.5068908,18.4776246 41.9495798,18.4776246 L14.3213445,18.4776246 L9.68806723,14.2628178 C9.39361345,13.9949133 8.96672269,13.9245884 8.60168067,14.0853311 C8.23596639,14.2460738 8,14.607075 8,15.0049131 L8,41.7953583 C8,42.3505903 8.45109244,42.8 9.00840336,42.8 C9.56571429,42.8 10.0168067,42.3505903 10.0168067,41.7953583 L10.0168067,17.2827707 L13.0420168,20.0341494 L13.0420168,36.0267057 C13.0420168,36.5819377 13.4931092,37.0313474 14.0504202,37.0313474 L26.9915966,37.0313474 L26.9915966,38.992408 L24.0141176,38.992408 C23.457479,38.992408 23.0057143,39.4424875 23.0057143,39.9970497 C23.0057143,40.5522816 23.457479,41.0016914 24.0141176,41.0016914 L31.9858824,41.0016914 C32.542521,41.0016914 32.9942857,40.5522816 32.9942857,39.9970497 C32.9942857,39.4424875 32.542521,38.992408 31.9858824,38.992408 L29.0084034,38.992408 L29.0084034,37.0313474 L40.7838655,37.0313474 L46.2783193,42.5059749 C46.4712605,42.6981963 46.7294118,42.8 46.9915966,42.8 C47.1213445,42.8 47.2531092,42.7752188 47.377479,42.7236472 C47.7546218,42.5682626 48,42.2019033 48,41.7953583 L48,15.0049131 C48,14.4496811 47.5489076,14.0002714 46.9915966,14.0002714 L46.9915966,14.0002714 Z" id="Fill-1" fill="#FFFFFF" mask="url(#mask-2)"></path>
            </g>
        </g>
    </g>
</svg>