<?xml version="1.0" encoding="UTF-8"?>
<svg width="660px" height="490px" viewBox="0 0 660 490" version="1.1" xmlns="http://www.w3.org/2000/svg" xmlns:xlink="http://www.w3.org/1999/xlink">
    <!-- Generator: Sketch 46.2 (44496) - http://www.bohemiancoding.com/sketch -->
    <title>Group 2</title>
    <desc>Created with Sketch.</desc>
    <defs>
        <polygon id="path-1" points="0.0311458534 143.940775 0 127.921196 397.662702 15.8693957 565 253.416887 565 263.195837 155.143543 415"></polygon>
        <filter x="-15.0%" y="-16.3%" width="130.1%" height="142.6%" filterUnits="objectBoundingBox" id="filter-2">
            <feOffset dx="0" dy="20" in="SourceAlpha" result="shadowOffsetOuter1"></feOffset>
            <feGaussianBlur stdDeviation="25" in="shadowOffsetOuter1" result="shadowBlurOuter1"></feGaussianBlur>
            <feColorMatrix values="0 0 0 0 0.0893610844   0 0 0 0 0.0594672614   0 0 0 0 0.301578444  0 0 0 0.17 0" type="matrix" in="shadowBlurOuter1"></feColorMatrix>
        </filter>
        <linearGradient x1="50%" y1="0%" x2="50%" y2="100%" id="linearGradient-3">
            <stop stop-color="#F6F6F6" offset="0%"></stop>
            <stop stop-color="#FFFFFF" offset="100%"></stop>
        </linearGradient>
        <path d="M191.002094,22.3794091 C174.382792,19.1746356 164.661361,18.1647027 146.392482,19.7136287 C60.6622408,26.982263 -4.75827612,87.8479863 0.271667405,155.661027 C5.30161093,223.474067 78.8772776,272.555006 164.607518,265.286371 C250.337759,258.017737 316.756906,197.099678 311.726962,129.286637 C310.768207,116.360828 307.31905,104.115593 301.770013,92.8114422 L241.338382,109.737008 L240.996901,112.213811 C244.549485,119.155404 246.7546,126.713805 247.347906,134.71268 C250.324101,174.837351 211.615076,210.851325 160.888878,215.152144 C110.16268,219.452962 66.6282888,190.411991 63.6520939,150.28732 C60.6758989,110.162649 99.3849245,74.1486746 150.111122,69.8478564 C160.594377,68.9590342 171.286741,69.3323244 180.861164,71.0950826 L191.002094,22.3794091 Z" id="path-4"></path>
        <filter x="-12.8%" y="-8.1%" width="125.6%" height="132.4%" filterUnits="objectBoundingBox" id="filter-5">
            <feOffset dx="0" dy="20" in="SourceAlpha" result="shadowOffsetOuter1"></feOffset>
            <feGaussianBlur stdDeviation="10" in="shadowOffsetOuter1" result="shadowBlurOuter1"></feGaussianBlur>
            <feColorMatrix values="0 0 0 0 0.709803922   0 0 0 0 0.756199382   0 0 0 0 0.815686275  0 0 0 0.9 0" type="matrix" in="shadowBlurOuter1"></feColorMatrix>
        </filter>
        <linearGradient x1="50%" y1="100%" x2="50%" y2="3.061617e-15%" id="linearGradient-6">
            <stop stop-color="#91DAFF" offset="0%"></stop>
            <stop stop-color="#C1F3FE" offset="100%"></stop>
        </linearGradient>
        <path d="M195.593031,204.67748 C185.038693,209.137292 173.324923,212.097754 160.888878,213.152144 C110.16268,217.452962 66.6282888,188.411991 63.6520939,148.28732 C60.6758989,108.162649 99.3849245,72.1486746 150.111122,67.8478564 C160.594377,66.9590342 170.77047,67.4942334 180.344893,69.2569916 L198.997597,20.3794091 C182.378295,17.1746356 164.661361,16.1647027 146.392482,17.7136287 C60.6622408,24.982263 -4.75827612,85.8479863 0.271667405,153.661027 C5.30161093,221.474067 78.8772776,270.555006 164.607518,263.286371 C183.524315,261.682512 201.45226,257.469086 217.852672,251.14727 L195.593031,204.67748 Z M275.68128,98.9858782 L300.771384,90.8637781 C301.259726,91.8585996 301.731806,92.8607096 302.187356,93.8699307 L294.769531,94.4853516 L275.68128,98.9858782 Z" id="path-7"></path>
        <linearGradient x1="50%" y1="0%" x2="50%" y2="100%" id="linearGradient-8">
            <stop stop-color="#FF4C1A" offset="0%"></stop>
            <stop stop-color="#FF250B" offset="100%"></stop>
        </linearGradient>
        <path d="M81.1550115,101 C96.7684488,83.1856743 121.930772,70.5886446 151.046874,68.1394093 C161.544421,67.2563597 171.734389,67.7880829 181.321865,69.5393927 L200,20.357461 C183.35804,17.1735014 165.61695,16.1701276 147.323164,17.7089939 C94.7381265,22.132427 49.7838633,46.5353448 24,80.2657993 L81.1550115,101 Z" id="path-9"></path>
        <linearGradient x1="44.7735768%" y1="0.273905232%" x2="55.2264232%" y2="99.7260948%" id="linearGradient-10">
            <stop stop-color="#A47EDC" offset="0%"></stop>
            <stop stop-color="#B97EFF" offset="100%"></stop>
        </linearGradient>
        <path d="M3.69587892,51.7766338 C11.2642298,38.52024 16.0435272,29.2653086 18.0337713,24.0118396 C35.7149162,13.8600914 55.996115,17.6929449 78.8773675,35.5104 C101.75862,53.3278552 115.940143,69.3496863 121.421937,83.5758935 L121.279247,85.5732005 L60.9601753,99.895832 C51.9410783,78.3251307 30.596704,61.2141521 3.55010788,53.8179524 L3.69587892,51.7766338 Z" id="path-11"></path>
        <filter x="-29.7%" y="-30.7%" width="159.4%" height="186.0%" filterUnits="objectBoundingBox" id="filter-12">
            <feOffset dx="0" dy="10" in="SourceAlpha" result="shadowOffsetOuter1"></feOffset>
            <feGaussianBlur stdDeviation="10" in="shadowOffsetOuter1" result="shadowBlurOuter1"></feGaussianBlur>
            <feColorMatrix values="0 0 0 0 0.529411765   0 0 0 0 0.462745098   0 0 0 0 0.631372549  0 0 0 0.7 0" type="matrix" in="shadowBlurOuter1"></feColorMatrix>
        </filter>
        <linearGradient x1="50%" y1="100%" x2="50%" y2="0%" id="linearGradient-13">
            <stop stop-color="#00496C" offset="0%"></stop>
            <stop stop-color="#0098D7" offset="100%"></stop>
        </linearGradient>
        <linearGradient x1="128.303417%" y1="125.647236%" x2="43.5674081%" y2="-5.78833997%" id="linearGradient-14">
            <stop stop-color="#599FFF" offset="0%"></stop>
            <stop stop-color="#5FCEFF" offset="100%"></stop>
        </linearGradient>
        <path d="M25.3855371,4.64276359 C71.0625282,17.5473389 106.905232,46.9013129 121.58935,83.719434 L60.5963608,97.9948861 C51.5772638,76.4241847 30.2328895,59.3132062 3.18629338,51.9170065 L25.3855371,4.64276359 Z" id="path-15"></path>
    </defs>
    <g id="视觉稿" stroke="none" stroke-width="1" fill="none" fill-rule="evenodd">
        <g id="Artboard-2" transform="translate(-236.000000, -131.000000)">
            <g id="Group-2" transform="translate(284.000000, 141.000000)">
                <g id="Rectangle-7-Copy-13">
                    <use fill="black" fill-opacity="1" filter="url(#filter-2)" xlink:href="#path-1"></use>
                    <use fill="#E4E3EB" fill-rule="evenodd" xlink:href="#path-1"></use>
                </g>
                <polygon id="Rectangle-7-Copy-13" fill="#ECECF2" points="0.0311458534 144.071379 0 128.0518 397.662702 16 344.484375 258.597656 159.664063 392 155.143543 415.130604"></polygon>
                <polygon id="Rectangle-7-Copy-12" fill="url(#linearGradient-3)" points="0 128.111665 400.455558 0.044834308 565 253.888107 157.965168 403.57115"></polygon>
                <g id="Group-8" transform="translate(275.026168, 173.000685) rotate(3.000000) translate(-275.026168, -173.000685) translate(119.026168, 40.000685)">
                    <g id="Combined-Shape">
                        <use fill="black" fill-opacity="1" filter="url(#filter-5)" xlink:href="#path-4"></use>
                        <use fill="#A477E9" fill-rule="evenodd" xlink:href="#path-4"></use>
                    </g>
                    <path d="M196.077938,206.665303 C185.491484,211.131904 173.74038,214.096795 161.263999,215.152144 C110.41953,219.452962 66.7836362,190.411991 63.8005021,150.28732 C60.817368,110.162649 99.6166456,74.1486746 150.461114,69.8478564 C160.968811,68.9590342 171.686106,69.3323244 181.282851,71.0950826 L191.447425,22.3794091 C174.789375,19.1746356 165.045277,18.1647027 146.733803,19.7136287 C60.803678,26.982263 -4.76937029,87.8479863 0.272300812,155.661027 C5.31397192,223.474067 79.0611841,272.555006 164.991309,265.286371 C183.81366,263.694231 201.659286,259.530523 218,253.285517 L218,252.079739 L196.077938,206.665303 Z" id="Combined-Shape" fill="#64B9EB"></path>
                    <path d="M80.8393464,103 C96.4557838,85.1280432 121.358995,72.4390811 150.130101,69.9915686 C160.607953,69.1002343 171.294808,69.4745795 180.864296,71.2423198 L191,22.3889604 C174.389263,19.1751291 164.672841,18.1623419 146.413377,19.7156456 C95.0502183,24.0850284 50.9810174,47.7674238 25,80.6865595 L80.8393464,101.515949 L80.8393464,103 Z" id="Combined-Shape" fill="#E83911"></path>
                    <g id="Combined-Shape">
                        <use fill="url(#linearGradient-6)" fill-rule="evenodd" xlink:href="#path-7"></use>
                        <path stroke-opacity="0.583305027" stroke="#FFFFFF" stroke-width="0.55" d="M217.476001,250.997484 L217.604658,251.266072 L217.753763,250.890673 C217.661214,250.926348 217.568626,250.961951 217.476001,250.997484 Z M198.623768,20.5876891 C198.731054,20.6081769 198.838306,20.6287587 198.945527,20.6494345 L198.74067,20.2813604 L198.623768,20.5876891 Z M180.169488,68.9453215 L180.087966,69.1589429 L180.394686,68.9865372 C180.319646,68.9727215 180.24458,68.9589829 180.169488,68.9453215 Z M195.458234,205.032636 C195.5389,204.998781 195.619512,204.964833 195.70007,204.930793 L195.345017,204.796282 L195.458234,205.032636 Z M195.458234,205.032636 L217.476001,250.997484 C200.875741,257.365531 183.046765,261.447014 164.584286,263.012354 C78.9940651,270.269117 5.56333229,221.284861 0.545914023,153.640685 C-4.47170657,85.9937805 60.8235778,25.2445707 146.415714,17.9876456 C164.239656,16.4764436 181.828057,17.3802792 198.623768,20.5876891 L180.169488,68.9453215 C170.471749,67.1810223 160.344599,66.7042249 150.08789,67.5738395 C99.2235875,71.8863669 60.3893294,108.016855 63.3778472,148.307662 C66.3665675,188.601197 110.045892,217.73885 160.91211,213.42616 C173.054288,212.396686 184.731282,209.534684 195.458234,205.032636 Z M282.168713,97.1748343 L294.746794,94.2112931 L301.77568,93.6281406 C301.404636,92.8144382 301.022455,92.0046378 300.629213,91.1988513 L282.168713,97.1748343 Z"></path>
                    </g>
                    <polygon id="Path-18" fill="#B8360F" points="181.232199 69.5045792 181.232199 71 197 32.8924853 189.116099 23 180 29.5382205"></polygon>
                    <g id="Combined-Shape">
                        <use fill="url(#linearGradient-8)" fill-rule="evenodd" xlink:href="#path-9"></use>
                        <path stroke-opacity="0.5" stroke="#FFFFFF" stroke-width="0.5832" d="M81.0673398,100.658 C97.1647398,82.3833117 122.625865,70.2375438 151.022432,67.8488356 C161.289636,66.9851623 171.427233,67.4580895 181.135354,69.2091725 L199.603976,20.5789171 C182.792382,17.3955094 165.187841,16.498854 147.347607,17.9995677 C96.3523005,22.2892732 50.9810672,45.6684352 24.4735865,80.127408 L81.0673398,100.658 Z"></path>
                    </g>
                    <path d="M194.950617,204.633512 C228.126782,191.192662 249.970034,162.92879 247.688818,132.116379 C247.095914,124.108017 244.935524,116.612399 241.385347,109.662573 L301.725979,90.0013705 C307.271256,101.31893 310.718075,113.578689 311.676181,126.519829 C315.624433,179.848921 276.13549,228.886561 217.49249,250.99815 L194.950617,204.633512 Z" id="Combined-Shape" stroke-opacity="0.3" stroke="#FFFFFF" stroke-width="0.55" fill="url(#linearGradient-10)"></path>
                    <g id="Group-6" transform="translate(181.000000, 0.000000)">
                        <g id="Combined-Shape-Copy-2" transform="translate(62.486022, 59.190314) rotate(-4.000000) translate(-62.486022, -59.190314) ">
                            <use fill="black" fill-opacity="1" filter="url(#filter-12)" xlink:href="#path-11"></use>
                            <use fill="#0671A0" fill-rule="evenodd" xlink:href="#path-11"></use>
                        </g>
                        <polygon id="Rectangle-5" fill="url(#linearGradient-13)" points="63.947664 97.4579719 123.396094 79.0847038 123.396094 81.0869219 63.947664 99.8604489"></polygon>
                        <g id="Combined-Shape" transform="translate(62.387822, 51.318825) rotate(-4.000000) translate(-62.387822, -51.318825) ">
                            <use fill="url(#linearGradient-14)" fill-rule="evenodd" xlink:href="#path-15"></use>
                            <path stroke-opacity="0.58" stroke="#FFFFFF" stroke-width="0.5832" d="M25.5442581,4.99079251 L3.59734898,51.7276781 C30.4868066,59.173146 51.7015967,76.2035664 60.7697163,97.6548317 L121.192434,83.5128522 C106.514323,47.0527432 70.9666342,17.8899838 25.5442578,4.99079322 Z"></path>
                        </g>
                    </g>
                </g>
            </g>
        </g>
    </g>
</svg>