<?xml version="1.0" encoding="UTF-8"?>
<svg width="75px" height="56px" viewBox="0 0 75 56" version="1.1" xmlns="http://www.w3.org/2000/svg" xmlns:xlink="http://www.w3.org/1999/xlink">
    <!-- Generator: Sketch 46.2 (44496) - http://www.bohemiancoding.com/sketch -->
    <title>Group 14</title>
    <desc>Created with Sketch.</desc>
    <defs></defs>
    <g id="视觉稿" stroke="none" stroke-width="1" fill="none" fill-rule="evenodd">
        <g id="Artboard-2" transform="translate(-1289.000000, -715.000000)">
            <g id="Group-5" transform="translate(1154.000000, 628.000000)">
                <g id="f2">
                    <g id="Group-14" transform="translate(135.000000, 87.000000)">
                        <circle id="Oval-12" fill="#D3FFEC" cx="58" cy="19" r="17"></circle>
                        <circle id="Oval-2" fill="#49D681" cx="28" cy="28" r="28"></circle>
                        <path d="M37.9173554,35.0374876 C37.1880992,35.0374876 36.5950413,34.4444298 36.5950413,33.7151736 C36.5950413,32.9859174 37.1880992,32.3928595 37.9173554,32.3928595 C38.6466116,32.3928595 39.2396694,32.9859174 39.2396694,33.7151736 C39.2396694,34.4444298 38.6466116,35.0374876 37.9173554,35.0374876 M28,33.0540165 C25.8122314,33.0540165 24.0330579,31.274843 24.0330579,29.0870744 C24.0330579,26.8993058 25.8122314,25.1201322 28,25.1201322 C30.1877686,25.1201322 31.9669421,26.8993058 31.9669421,29.0870744 C31.9669421,31.274843 30.1877686,33.0540165 28,33.0540165 M20.7272727,37.6821157 C19.9980165,37.6821157 19.4049587,37.0890579 19.4049587,36.3598017 C19.4049587,35.6305455 19.9980165,35.0374876 20.7272727,35.0374876 C21.4565289,35.0374876 22.0495868,35.6305455 22.0495868,36.3598017 C22.0495868,37.0890579 21.4565289,37.6821157 20.7272727,37.6821157 M38.5785124,17.847405 C39.3077686,17.847405 39.9008264,18.4404628 39.9008264,19.169719 C39.9008264,19.8989752 39.3077686,20.4920331 38.5785124,20.4920331 C37.8492562,20.4920331 37.2561983,19.8989752 37.2561983,19.169719 C37.2561983,18.4404628 37.8492562,17.847405 38.5785124,17.847405 M17.4214876,25.1201322 C16.6922314,25.1201322 16.0991736,24.5270744 16.0991736,23.7978182 C16.0991736,23.068562 16.6922314,22.4755041 17.4214876,22.4755041 C18.1507438,22.4755041 18.7438017,23.068562 18.7438017,23.7978182 C18.7438017,24.5270744 18.1507438,25.1201322 17.4214876,25.1201322 M47.0082645,15.0004628 C46.4601653,15.0004628 46.0165289,15.4447603 46.0165289,15.9921983 L46.0165289,40.0444298 L40.9652893,34.9931901 C41.1305785,34.5998017 41.2231405,34.1680661 41.2231405,33.7151736 C41.2231405,31.8923636 39.7401653,30.4093884 37.9173554,30.4093884 C37.0102479,30.4093884 36.1884298,30.7776529 35.5900826,31.3713719 L33.7666116,30.5290579 C33.882314,30.0662479 33.9504132,29.5849256 33.9504132,29.0870744 C33.9504132,27.8639339 33.578843,26.7260826 32.9434711,25.7793058 L36.9699174,22.0398017 C37.448595,22.3088926 37.9920661,22.4755041 38.5785124,22.4755041 C40.4013223,22.4755041 41.8842975,20.9925289 41.8842975,19.169719 C41.8842975,17.3469091 40.4013223,15.8639339 38.5785124,15.8639339 C36.7557025,15.8639339 35.2727273,17.3469091 35.2727273,19.169719 C35.2727273,19.6827769 35.4003306,20.1627769 35.6099174,20.5964959 L31.5761983,24.3426116 C30.5791736,23.5895537 29.3428099,23.1366612 28,23.1366612 C26.0317355,23.1366612 24.2889256,24.1012893 23.2052893,25.578314 L20.6671074,24.3941818 C20.7028099,24.1998017 20.7272727,24.0021157 20.7272727,23.7978182 C20.7272727,21.9750083 19.2442975,20.4920331 17.4214876,20.4920331 C16.7087603,20.4920331 16.0522314,20.7240992 15.511405,21.1095537 L9.69322314,15.2913719 C9.40958678,15.0077355 8.98247934,14.9217851 8.6122314,15.0764959 C8.24132231,15.2298843 8,15.590876 8,15.9921983 L8,42.4384793 C8,42.9865785 8.44363636,43.4302149 8.99173554,43.4302149 C9.53983471,43.4302149 9.98347107,42.9865785 9.98347107,42.4384793 L9.98347107,18.3862479 L14.3127273,22.7155041 C14.193719,23.0566612 14.1157025,23.4169917 14.1157025,23.7978182 C14.1157025,25.6206281 15.5986777,27.1036033 17.4214876,27.1036033 C18.3239669,27.1036033 19.1418182,26.7386446 19.738843,26.1502149 L22.3100826,27.3495537 C22.1414876,27.8996364 22.0495868,28.4827769 22.0495868,29.0870744 C22.0495868,30.453686 22.517686,31.7105455 23.2952066,32.7161653 L22.4119008,33.5313719 C21.9166942,33.2351736 21.3447934,33.0540165 20.7272727,33.0540165 C18.9044628,33.0540165 17.4214876,34.5369917 17.4214876,36.3598017 C17.4214876,38.1826116 18.9044628,39.6655868 20.7272727,39.6655868 C22.5500826,39.6655868 24.0330579,38.1826116 24.0330579,36.3598017 C24.0330579,35.877157 23.9233058,35.4216198 23.7368595,35.0077355 L24.7550413,34.0682314 C25.6892562,34.6791405 26.8026446,35.0374876 28,35.0374876 C30.0780165,35.0374876 31.907438,33.9650909 32.972562,32.3472397 L34.6704132,33.1307107 C34.6366942,33.321124 34.6115702,33.514843 34.6115702,33.7151736 C34.6115702,35.5379835 36.0945455,37.0209587 37.9173554,37.0209587 C38.5639669,37.0209587 39.1629752,36.8272397 39.6727273,36.5052562 L46.3067769,43.1399669 C46.4965289,43.329719 46.7504132,43.4302149 47.0082645,43.4302149 C47.1358678,43.4302149 47.2654545,43.4057521 47.3877686,43.354843 C47.7586777,43.2014545 48,42.8398017 48,42.4384793 L48,15.9921983 C48,15.4447603 47.5563636,15.0004628 47.0082645,15.0004628" id="Page-1" fill="#FFFFFF"></path>
                    </g>
                </g>
            </g>
        </g>
    </g>
</svg>