<?xml version="1.0" encoding="UTF-8"?>
<svg width="72px" height="56px" viewBox="0 0 72 56" version="1.1" xmlns="http://www.w3.org/2000/svg" xmlns:xlink="http://www.w3.org/1999/xlink">
    <!-- Generator: Sketch 46.2 (44496) - http://www.bohemiancoding.com/sketch -->
    <title>G2 ICON</title>
    <desc>Created with Sketch.</desc>
    <defs>
        <linearGradient x1="50%" y1="23.843149%" x2="50%" y2="100%" id="linearGradient-1">
            <stop stop-color="#FF8680" offset="0%"></stop>
            <stop stop-color="#FF4E49" offset="100%"></stop>
        </linearGradient>
    </defs>
    <g id="视觉稿" stroke="none" stroke-width="1" fill="none" fill-rule="evenodd">
        <g id="首页" transform="translate(-439.000000, -722.000000)">
            <g id="G2" transform="translate(295.000000, 632.000000)">
                <g id="G2-ICON" transform="translate(144.000000, 90.000000)">
                    <polygon id="Triangle-4" fill="#FFEFEF" points="51 0 72 34 30 34"></polygon>
                    <g id="Group-17" transform="translate(0.000000, 14.000000)">
                        <path d="M36.2866696,36 L37.9421598,40.6655982 C38.1268448,41.1860882 37.8546211,41.7577456 37.334131,41.9424306 C37.2267572,41.98053 37.1136621,42 36.9997292,42 L13.9999983,42 C13.4477135,42 12.9999983,41.5522847 12.9999983,41 C12.9999983,40.8860671 13.0194683,40.772972 13.0575677,40.6655982 L14.7130579,36 L36.2866696,36 Z" id="Combined-Shape" fill="#FF4E49"></path>
                        <rect id="Rectangle-4" fill="url(#linearGradient-1)" x="0" y="0" width="53" height="35" rx="2"></rect>
                    </g>
                    <rect id="Rectangle-10" fill="#FFFFFF" x="11" y="20" width="7" height="22" rx="2"></rect>
                    <rect id="Rectangle-10" fill="#FFFFFF" x="23" y="28" width="7" height="14" rx="2"></rect>
                    <rect id="Rectangle-10" fill="#FFFFFF" x="35" y="30" width="7" height="12" rx="2"></rect>
                </g>
            </g>
        </g>
    </g>
</svg>