<?xml version="1.0" encoding="UTF-8"?>
<svg width="73px" height="56px" viewBox="0 0 73 56" version="1.1" xmlns="http://www.w3.org/2000/svg" xmlns:xlink="http://www.w3.org/1999/xlink">
    <!-- Generator: Sketch 46.2 (44496) - http://www.bohemiancoding.com/sketch -->
    <title>Group 4</title>
    <desc>Created with Sketch.</desc>
    <defs></defs>
    <g id="视觉稿" stroke="none" stroke-width="1" fill="none" fill-rule="evenodd">
        <g id="Artboard-2" transform="translate(-859.000000, -713.000000)">
            <g id="g6" transform="translate(725.000000, 628.000000)">
                <g id="Group-4" transform="translate(134.000000, 85.000000)">
                    <rect id="Rectangle-33" fill="#E0DFFF" x="39" y="6" width="34" height="34"></rect>
                    <circle id="Oval-2" fill="#5B59E4" cx="28" cy="28" r="28"></circle>
                    <g id="Page-1" transform="translate(8.000000, 14.000000)" fill="#FFFFFF">
                        <path d="M12.6465574,25.3735738 L26.6977049,25.3735738 L26.6977049,2.82340984 L12.6465574,2.82340984 L12.6465574,25.3735738 Z M38.6885246,0.000459016394 C38.144918,0.000459016394 37.704918,0.440459016 37.704918,0.984065574 L37.704918,24.8391475 L28.664918,15.7991475 L28.664918,1.84045902 C28.664918,1.29685246 28.2242623,0.856852459 27.6813115,0.856852459 L11.6629508,0.856852459 C11.12,0.856852459 10.6793443,1.29685246 10.6793443,1.84045902 L10.6793443,9.28898361 L1.67934426,0.288327869 C1.39803279,0.00767213115 0.975081967,-0.0782295082 0.607213115,0.0752131148 C0.239344262,0.227344262 0,0.586032787 0,0.984065574 L0,27.2135738 C0,27.7571803 0.44,28.1971803 0.983606557,28.1971803 C1.52721311,28.1971803 1.96721311,27.7571803 1.96721311,27.2135738 L1.96721311,3.3584918 L10.4518033,11.8437377 C10.5193443,11.910623 10.6006557,11.950623 10.6793443,11.9945574 L10.6793443,26.3571803 C10.6793443,26.9007869 11.12,27.3407869 11.6629508,27.3407869 L27.6813115,27.3407869 C28.2242623,27.3407869 28.664918,26.9007869 28.664918,26.3571803 L28.664918,18.5807869 L37.9927869,27.9093115 C38.1809836,28.0975082 38.4327869,28.1971803 38.6885246,28.1971803 C38.815082,28.1971803 38.9436066,28.172918 39.064918,28.1224262 C39.4327869,27.9702951 39.6721311,27.6116066 39.6721311,27.2135738 L39.6721311,0.984065574 C39.6721311,0.440459016 39.2321311,0.000459016394 38.6885246,0.000459016394 L38.6885246,0.000459016394 Z" id="Fill-1"></path>
                        <path d="M19.6525902,23.9447869 C19.8250492,23.9447869 19.9994754,23.914623 20.170623,23.8516721 C20.5437377,23.7126557 20.8414426,23.4372459 21.008,23.074623 C21.1745574,22.7126557 21.1896393,22.3060984 21.0512787,21.9336393 C20.912918,21.5592131 20.6368525,21.2615082 20.2742295,21.0949508 C19.9122623,20.9283934 19.5063607,20.9126557 19.1319344,21.0516721 C18.7575082,21.1906885 18.460459,21.4660984 18.2939016,21.8287213 C18.1273443,22.1913443 18.1122623,22.5972459 18.2512787,22.9710164 C18.4742295,23.5723279 19.045377,23.9447869 19.6525902,23.9447869" id="Fill-3"></path>
                    </g>
                </g>
            </g>
        </g>
    </g>
</svg>