<svg width="56" height="34" viewBox="0 0 56 34" version="1.1" xmlns="http://www.w3.org/2000/svg" xmlns:xlink="http://www.w3.org/1999/xlink">
    <!-- Generator: Sketch 46.2 (44496) - http://www.bohemiancoding.com/sketch -->
    <desc>Created with Sketch.</desc>
    <defs>
        <linearGradient x1="50%" y1="0%" x2="50%" y2="100%" id="linearGradient-1">
            <stop stop-color="#957FF8" stop-opacity="0.65" offset="0%"></stop>
            <stop stop-color="#3927CA" stop-opacity="0.6" offset="100%"></stop>
        </linearGradient>
    </defs>
    <g id="视觉稿" stroke="none" stroke-width="1" fill="none" fill-rule="evenodd">
        <g id="二级页面" transform="translate(-32.000000, -14.000000)">
            <g id="logo" transform="translate(32.000000, 9.000000)">
                <g transform="translate(0.000000, 5.000000)">
                    <g id="Group-13" transform="translate(26.807018, 4.181040)"></g>
                    <path d="M29.8380912,14.6891751 C26.4977404,20.499808 25.9934596,27.0338276 27.9684772,32.1900014 C33.4023018,31.3297464 38.7844772,27.6241517 42.1248281,21.8135188 C45.4651789,16.0028859 45.9694596,9.46886632 43.9944421,4.31269254 C38.5606175,5.17294756 33.1784421,8.87854222 29.8380912,14.6891751" id="Fill-4" fill="url(#linearGradient-1)"></path>
                    <path d="M20.9135298,16.0950289 C20.9135298,22.8046797 23.7298105,28.7163782 28.0072842,32.1901001 C32.2847579,28.7163782 35.1010386,22.8046797 35.1010386,16.0950289 C35.1010386,9.38537803 32.2847579,3.4736796 28.0072842,-4.22868271e-05 C23.7298105,3.4736796 20.9135298,9.38537803 20.9135298,16.0950289" id="Fill-1" fill="url(#linearGradient-1)"></path>
                    <path d="M38.457993,17.9782023 C32.6723088,21.3329572 28.9826246,26.7383414 28.1260632,32.1955973 C33.2600982,34.1791315 39.7660632,33.6726762 45.5517474,30.3179213 C51.3374316,26.9631663 55.0271158,21.5577822 55.8836772,16.1005262 C50.7496421,14.1169921 44.2436772,14.6234473 38.457993,17.9782023" id="Fill-6" fill="url(#linearGradient-1)"></path>
                    <path d="M13.9392561,21.8135329 C17.279607,27.6241658 22.6617825,31.3297605 28.095607,32.1900155 C30.0706246,27.0338417 29.5663439,20.4998221 26.225993,14.6891892 C22.8856421,8.87855631 17.5034667,5.17296165 12.0696421,4.31270664 C10.0946246,9.46888042 10.5989053,16.0029 13.9392561,21.8135329" id="Fill-9" fill="url(#linearGradient-1)"></path>
                    <path d="M10.3319579,30.3179213 C16.1176421,33.6726762 22.623607,34.1791315 27.7576421,32.1955973 C26.9010807,26.7383414 23.2113965,21.3329572 17.4257123,17.9782023 C11.6400281,14.6234473 5.13406316,14.1169921 2.80701754e-05,16.1005262 C0.856589474,21.5577822 4.54627368,26.9631663 10.3319579,30.3179213" id="Fill-11" fill="url(#linearGradient-1)"></path>
                    <g id="Group-19" transform="translate(23.719298, 13.907010)" fill="#FEFEFE">
                        <path d="M8.44179649,19.2820602 C6.37597193,15.4920328 5.17484912,11.1604522 5.09442807,6.55428905 L5.09442807,4.44502212 L3.48951579,4.44502212 L3.48951579,6.68523726 C3.38846316,11.2543289 2.18453333,15.5498248 0.128533333,19.3109562 L8.44741053,19.3109562 L8.44179649,19.2820602 Z" id="Fill-15"></path>
                        <polygon id="Fill-17" points="1.65393684 1.01585645 2.85407719 0.101333333 3.48144561 2.19453127"></polygon>
                        <polygon id="Fill-14" points="3.50703158 5.4768066 3.47671579 2.15602207 7.96836491 3.78998507"></polygon>
                    </g>
                </g>
            </g>
        </g>
    </g>
</svg>