<?xml version="1.0" encoding="UTF-8"?>
<svg width="16px" height="16px" viewBox="0 0 16 16" version="1.1" xmlns="http://www.w3.org/2000/svg" xmlns:xlink="http://www.w3.org/1999/xlink">
    <!-- Generator: Sketch 47 (45396) - http://www.bohemiancoding.com/sketch -->
    <title>Shape</title>
    <desc>Created with Sketch.</desc>
    <defs></defs>
    <g id="视觉稿" stroke="none" stroke-width="1" fill="none" fill-rule="evenodd">
        <g id="图表示例-detail" transform="translate(-18.000000, -807.000000)" fill-rule="nonzero" fill="#ABB3C9">
            <g id="nav-left" transform="translate(0.000000, 65.000000)">
                <g id="icon" transform="translate(18.000000, 460.000000)">
                    <path d="M13.9863415,293.957073 C13.4777171,293.957073 13.0136,294.147161 12.6609171,294.460059 L9.33816585,291.4832 C9.74161951,290.902732 9.95902439,290.214068 9.95902439,289.492683 C9.95902439,288.941073 9.83194146,288.408585 9.59178537,287.928956 L11.7708293,286.139668 C12.2161756,286.604332 12.8430244,286.893678 13.537561,286.893678 C14.8890537,286.893678 15.9843902,285.798341 15.9843902,284.446849 C15.9843902,283.095356 14.8890537,282 13.537561,282 C12.1860683,282 11.0907317,283.095337 11.0907317,284.446829 C11.0907317,284.878849 11.2028098,285.284605 11.399239,285.636859 L9.25966829,287.393737 C9.16029559,287.261775 9.05181635,287.136924 8.93502439,287.020098 C8.27473171,286.359805 7.39590244,285.996098 6.46243902,285.996098 C5.69841951,285.996098 4.97108293,286.239883 4.37014634,286.69038 L3.39383415,285.427629 C3.76536585,285.06482 3.99609756,284.558459 3.99609756,283.998049 C3.99609756,282.894439 3.10165854,282 1.99804878,282 C0.894439024,282 0,282.894439 0,283.998049 C0,285.101659 0.894439024,285.996098 1.99804878,285.996098 C2.3163122,285.996098 2.61713171,285.92158 2.88417561,285.789229 L3.90444878,287.108859 C3.2984,287.758166 2.96585366,288.60039 2.96585366,289.492683 C2.96585366,290.413093 3.31966829,291.280215 3.96253659,291.937268 L3.1072,293.102751 C2.78989268,292.890595 2.40844878,292.766829 1.99804878,292.766829 C0.894439024,292.766829 0,293.661268 0,294.764878 C0,295.868488 0.894439024,296.762927 1.99804878,296.762927 C3.10165854,296.762927 3.99609756,295.868488 3.99609756,294.764878 C3.99609756,294.298459 3.8363122,293.869424 3.56852683,293.529463 L4.43806829,292.344624 C5.02554146,292.763356 5.72698537,292.989268 6.46243902,292.989268 C7.39590244,292.989268 8.27473171,292.625561 8.93502439,291.965268 L8.93758049,291.962634 L12.2636488,294.942459 C12.0887415,295.239415 11.9882927,295.585502 11.9882927,295.955122 C11.9882927,297.058732 12.8827317,297.953171 13.9863415,297.953171 C15.0899512,297.953171 15.9843902,297.058732 15.9843902,295.955122 C15.9843902,294.851512 15.0899512,293.957073 13.9863415,293.957073 L13.9863415,293.957073 Z" id="Shape"></path>
                </g>
            </g>
        </g>
    </g>
</svg>