<?xml version="1.0" encoding="UTF-8"?>
<svg width="16px" height="14px" viewBox="0 0 16 14" version="1.1" xmlns="http://www.w3.org/2000/svg" xmlns:xlink="http://www.w3.org/1999/xlink">
    <!-- Generator: Sketch 47 (45396) - http://www.bohemiancoding.com/sketch -->
    <title>26仪表盘</title>
    <desc>Created with Sketch.</desc>
    <defs></defs>
    <g id="视觉稿" stroke="none" stroke-width="1" fill="none" fill-rule="evenodd">
        <g id="图表示例-detail" transform="translate(-18.000000, -727.000000)" fill="#ABB3C9">
            <g id="nav-left" transform="translate(0.000000, 65.000000)">
                <g id="icon" transform="translate(18.000000, 460.000000)">
                    <g id="26仪表盘" transform="translate(0.000000, 202.000000)">
                        <g id="图层_8">
                            <g>
                                <g id="Group">
                                    <path d="M7.99583875,0.0124837451 C3.58283485,0.0124837451 0.00624187256,3.58907672 0.00624187256,8.00208062 C0.00624187256,10.2179454 0.907152146,12.2215865 2.36358908,13.6676203 L2.36775033,13.663459 C2.48842653,13.8319896 2.68608583,13.9422627 2.90871261,13.9422627 C3.27698309,13.9422627 3.57451235,13.6447334 3.57451235,13.2764629 C3.57451235,13.0538362 3.46423927,12.8561769 3.29570871,12.7355007 L3.30611183,12.7250975 C2.09102731,11.5183355 1.33784135,9.84759428 1.33784135,8 C1.33784135,4.32353706 4.31937581,1.3420026 7.99583875,1.3420026 C11.6723017,1.3420026 14.6538362,4.32353706 14.6538362,8 C14.6538362,9.79349805 13.9443433,11.4205462 12.7916775,12.6169051 C12.6002601,12.73342 12.4712614,12.9456437 12.4712614,13.1849155 C12.4712614,13.553186 12.7687906,13.8507152 13.1370611,13.8507152 C13.3388817,13.8507152 13.5178153,13.7612484 13.6405722,13.6197659 L13.6572172,13.6364109 C15.0970091,12.1924577 15.9854356,10.1992198 15.9854356,7.99791938 C15.9854356,3.59115735 12.4088427,0.0124837451 7.99583875,0.0124837451 Z" id="Shape"></path>
                                    <path d="M7.64005202,7.55682705 C7.36124837,7.79609883 7.33003901,8.21638492 7.56931079,8.49518856 C7.80858257,8.7739922 8.22886866,8.80520156 8.5076723,8.56592978 C8.5076723,8.56592978 12.3526658,4.89362809 12.113394,4.61482445 C11.8741222,4.33394018 7.64005202,7.55682705 7.64005202,7.55682705 Z" id="Shape"></path>
                                </g>
                            </g>
                        </g>
                    </g>
                </g>
            </g>
        </g>
    </g>
</svg>