<?xml version="1.0" encoding="UTF-8"?>
<svg width="12px" height="4px" viewBox="0 0 12 4" version="1.1" xmlns="http://www.w3.org/2000/svg" xmlns:xlink="http://www.w3.org/1999/xlink">
    <!-- Generator: Sketch 47 (45396) - http://www.bohemiancoding.com/sketch -->
    <title>Shape</title>
    <desc>Created with Sketch.</desc>
    <defs></defs>
    <g id="视觉稿" stroke="none" stroke-width="1" fill="none" fill-rule="evenodd">
        <g id="图表示例-detail" transform="translate(-20.000000, -972.000000)" fill-rule="nonzero" fill="#ABB3C9">
            <g id="nav-left" transform="translate(0.000000, 65.000000)">
                <g id="icon" transform="translate(18.000000, 460.000000)">
                    <path d="M2.11704688,449.384266 C2.11704686,449.928169 2.40721585,450.430756 2.87824999,450.702708 C3.34928413,450.97466 3.92962212,450.97466 4.40065626,450.702708 C4.8716904,450.430756 5.16185939,449.928169 5.16185938,449.384266 C5.16185938,448.543464 4.48025488,447.861859 3.63945313,447.861859 C2.79865137,447.861859 2.11704688,448.543464 2.11704688,449.384266 L2.11704688,449.384266 Z M6.52448438,449.384266 C6.52448436,449.928163 6.81465037,450.430746 7.28567967,450.702695 C7.75670898,450.974644 8.33704102,450.974644 8.80807033,450.702695 C9.27909963,450.430746 9.56926564,449.928163 9.56926563,449.384266 C9.56926564,448.840368 9.27909963,448.337786 8.80807033,448.065837 C8.33704102,447.793888 7.75670898,447.793888 7.28567967,448.065837 C6.81465037,448.337786 6.52448436,448.840368 6.52448438,449.384266 Z M10.9318906,449.384266 C10.9318906,449.928163 11.2220566,450.430746 11.6930859,450.702695 C12.1641152,450.974644 12.7444473,450.974644 13.2154766,450.702695 C13.6865059,450.430746 13.9766719,449.928163 13.9766719,449.384266 C13.9766719,448.543472 13.2950744,447.861875 12.4542813,447.861875 C11.6134881,447.861875 10.9318906,448.543472 10.9318906,449.384266 L10.9318906,449.384266 Z" id="Shape"></path>
                </g>
            </g>
        </g>
    </g>
</svg>