<?xml version="1.0" encoding="UTF-8"?>
<svg width="16px" height="16px" viewBox="0 0 16 16" version="1.1" xmlns="http://www.w3.org/2000/svg" xmlns:xlink="http://www.w3.org/1999/xlink">
    <!-- Generator: Sketch 47 (45396) - http://www.bohemiancoding.com/sketch -->
    <title>08雷达图黑底</title>
    <desc>Created with Sketch.</desc>
    <defs></defs>
    <g id="视觉稿" stroke="none" stroke-width="1" fill="none" fill-rule="evenodd">
        <g id="图表示例-detail" transform="translate(-18.000000, -606.000000)" fill-rule="nonzero" fill="#ABB3C9">
            <g id="nav-left" transform="translate(0.000000, 65.000000)">
                <g id="icon" transform="translate(18.000000, 460.000000)">
                    <g id="08雷达图黑底" transform="translate(0.000000, 81.000000)">
                        <path d="M8.22740077,9.25787452 C8.1475032,9.27221511 8.06555698,9.28040973 7.9815621,9.28040973 C7.87298335,9.28040973 7.76850192,9.2681178 7.67016645,9.24353393 L6.39590269,13.1298335 L9.82535211,11.5728553 L8.22740077,9.25787452 Z M5.67272727,13.228169 L7.08425096,8.92394366 C6.953137,8.80102433 6.84865557,8.65147247 6.77695262,8.48553137 L2.831242,9.56517286 L5.67272727,13.228169 Z M8.32983355,6.70524968 C8.41382843,6.72778489 8.49372599,6.75851472 8.56952625,6.79743918 L10.0548015,5.53137004 L8.32983355,2.91113956 L8.32983355,6.70524968 Z M2.831242,8.88706786 L6.6765685,7.8340589 C6.68476312,7.74801536 6.70320102,7.66402049 6.72778489,7.58412292 L3.06274008,5.15851472 L2.831242,8.88706786 Z M10.9418694,5.63585147 L15.209219,9.44020487 L15.8279129,9.53854033 C15.9262484,9.03457106 15.9795134,8.5162612 15.9795134,7.98361076 C15.9795134,6.01895006 15.2706786,4.22023047 14.0947503,2.82919334 L10.9418694,5.63585147 Z M13.787452,9.05096031 L10.4379001,6.06606914 L9.0653009,7.23585147 C9.18002561,7.40588988 9.25582586,7.60460948 9.28245839,7.81766965 L13.787452,9.05096031 Z M7.67426376,6.6950064 L7.67426376,2.41741357 L3.19180538,4.45787452 L7.07195903,7.0268886 C7.23790013,6.86709347 7.44481434,6.7503201 7.67426376,6.6950064 Z M10.2002561,12.121895 L6.11728553,13.9759283 L5.72599232,15.6476312 C6.44302177,15.8586428 7.20307298,15.9733675 7.98770807,15.9733675 C9.51190781,15.9733675 10.9357234,15.5472471 12.1464789,14.8076825 L10.2002561,12.121895 Z M10.8025608,11.8391805 L12.6934699,14.4450704 C13.9902689,13.4985915 14.9920615,12.1710627 15.5329065,10.6263764 L10.8025608,11.8391805 Z M5.42483995,13.9800256 L2.14494238,9.75364917 L0.344174136,10.3149808 C1.05915493,12.6647887 2.82919334,14.5556978 5.10115237,15.4366197 L5.42483995,13.9800256 Z M2.16133163,9.06939821 L2.43380282,4.74058899 L1.11446863,3.91088348 C0.405633803,5.10320102 0,6.49628681 0,7.98361076 C0,8.56542894 0.0614596671,9.13495519 0.18028169,9.68194622 L2.16133163,9.06939821 Z M14.7790013,10.0015365 L9.19231754,8.47119078 C9.11037132,8.66581306 8.98540333,8.83790013 8.82560819,8.97106274 L10.409219,11.2676056 L14.7790013,10.0015365 Z M8.32983355,1.71677337 L10.5587708,5.10115237 L13.6522407,2.34571063 C12.2796415,0.966965429 10.4071703,0.0880921895 8.3318822,4.26325641e-14 L8.3318822,1.71677337 L8.32983355,1.71677337 Z M2.54647887,4.03175416 L7.67426376,1.69628681 L7.67426376,0 C5.1134443,0.0983354673 2.86402049,1.40332907 1.4709347,3.35979513 L2.54647887,4.03175416 Z" id="Shape"></path>
                    </g>
                </g>
            </g>
        </g>
    </g>
</svg>